<svg xmlns="http://www.w3.org/2000/svg" viewBox="0 0 120 120" fill="none"><rect x="0" y="0" width="120" height="120" rx="27" fill="#1F9AA6"></rect><g transform="translate(60 60) scale(1.45) translate(-32 -33)"><path d="M33 63 C 31 55 27 50 26 43" fill="none" stroke="#F5F1E8" stroke-width="2.2" stroke-linecap="round"></path><path d="M33 63 C 35 55 39 50 40 42" fill="none" stroke="#F5F1E8" stroke-width="2.2" stroke-linecap="round"></path><path d="M33 63 C 33 56 33 50 33 44" fill="none" stroke="#F5F1E8" stroke-width="2.2" stroke-linecap="round"></path><g transform="translate(26 39) rotate(-15) scale(0.82) translate(-32 -31)"><path d="M0 0 C -11 -7 -10 -25 0 -30 C 10 -25 11 -7 0 0 Z" transform="translate(32 31) rotate(0) scale(0.82 0.72)" fill="#F5F1E8" stroke="#1F9AA6" stroke-width="1.4" stroke-linejoin="round"></path><path d="M0 0 C -11 -7 -10 -25 0 -30 C 10 -25 11 -7 0 0 Z" transform="translate(32 31) rotate(-58) scale(1.04 1)" fill="#F5F1E8" stroke="#1F9AA6" stroke-width="1.4" stroke-linejoin="round"></path><path d="M0 0 C -11 -7 -10 -25 0 -30 C 10 -25 11 -7 0 0 Z" transform="translate(32 31) rotate(55) scale(1.12 1.03)" fill="#F5F1E8" stroke="#1F9AA6" stroke-width="1.4" stroke-linejoin="round"></path><path d="M0 0 C -11 -7 -10 -25 0 -30 C 10 -25 11 -7 0 0 Z" transform="translate(32 31) rotate(-126) scale(0.84 0.86)" fill="#F5F1E8" stroke="#1F9AA6" stroke-width="1.4" stroke-linejoin="round"></path><path d="M0 0 C -11 -7 -10 -25 0 -30 C 10 -25 11 -7 0 0 Z" transform="translate(32 31) rotate(124) scale(0.88 0.88)" fill="#F5F1E8" stroke="#1F9AA6" stroke-width="1.4" stroke-linejoin="round"></path><path d="M32 28.5 C 27.4 28.5 26.7 32.4 28.6 35 C 29.8 36.7 31 38.1 32 39.3 C 33 38.1 34.2 36.7 35.4 35 C 37.3 32.4 36.6 28.5 32 28.5 Z" fill="#F5F1E8" stroke="#1F9AA6" stroke-width="1.4" stroke-linejoin="round"></path><circle cx="32" cy="31.2" r="3.1" fill="#C99A3A"></circle><circle cx="29.2" cy="27.6" r="1.05" fill="#C99A3A"></circle><circle cx="34.8" cy="27.6" r="1.05" fill="#C99A3A"></circle></g><g transform="translate(40 37) rotate(16) scale(0.82) translate(-32 -31)"><path d="M0 0 C -11 -7 -10 -25 0 -30 C 10 -25 11 -7 0 0 Z" transform="translate(32 31) rotate(0) scale(0.82 0.72)" fill="#F5F1E8" stroke="#1F9AA6" stroke-width="1.4" stroke-linejoin="round"></path><path d="M0 0 C -11 -7 -10 -25 0 -30 C 10 -25 11 -7 0 0 Z" transform="translate(32 31) rotate(-58) scale(1.04 1)" fill="#F5F1E8" stroke="#1F9AA6" stroke-width="1.4" stroke-linejoin="round"></path><path d="M0 0 C -11 -7 -10 -25 0 -30 C 10 -25 11 -7 0 0 Z" transform="translate(32 31) rotate(55) scale(1.12 1.03)" fill="#F5F1E8" stroke="#1F9AA6" stroke-width="1.4" stroke-linejoin="round"></path><path d="M0 0 C -11 -7 -10 -25 0 -30 C 10 -25 11 -7 0 0 Z" transform="translate(32 31) rotate(-126) scale(0.84 0.86)" fill="#F5F1E8" stroke="#1F9AA6" stroke-width="1.4" stroke-linejoin="round"></path><path d="M0 0 C -11 -7 -10 -25 0 -30 C 10 -25 11 -7 0 0 Z" transform="translate(32 31) rotate(124) scale(0.88 0.88)" fill="#F5F1E8" stroke="#1F9AA6" stroke-width="1.4" stroke-linejoin="round"></path><path d="M32 28.5 C 27.4 28.5 26.7 32.4 28.6 35 C 29.8 36.7 31 38.1 32 39.3 C 33 38.1 34.2 36.7 35.4 35 C 37.3 32.4 36.6 28.5 32 28.5 Z" fill="#F5F1E8" stroke="#1F9AA6" stroke-width="1.4" stroke-linejoin="round"></path><circle cx="32" cy="31.2" r="3.1" fill="#C99A3A"></circle><circle cx="29.2" cy="27.6" r="1.05" fill="#C99A3A"></circle><circle cx="34.8" cy="27.6" r="1.05" fill="#C99A3A"></circle></g><g transform="translate(33 23) rotate(2) scale(0.62) translate(-32 -31)"><path d="M0 0 C -11 -7 -10 -25 0 -30 C 10 -25 11 -7 0 0 Z" transform="translate(32 31) rotate(0) scale(0.82 0.72)" fill="#F5F1E8" stroke="#1F9AA6" stroke-width="1.4" stroke-linejoin="round"></path><path d="M0 0 C -11 -7 -10 -25 0 -30 C 10 -25 11 -7 0 0 Z" transform="translate(32 31) rotate(-58) scale(1.04 1)" fill="#F5F1E8" stroke="#1F9AA6" stroke-width="1.4" stroke-linejoin="round"></path><path d="M0 0 C -11 -7 -10 -25 0 -30 C 10 -25 11 -7 0 0 Z" transform="translate(32 31) rotate(55) scale(1.12 1.03)" fill="#F5F1E8" stroke="#1F9AA6" stroke-width="1.4" stroke-linejoin="round"></path><path d="M0 0 C -11 -7 -10 -25 0 -30 C 10 -25 11 -7 0 0 Z" transform="translate(32 31) rotate(-126) scale(0.84 0.86)" fill="#F5F1E8" stroke="#1F9AA6" stroke-width="1.4" stroke-linejoin="round"></path><path d="M0 0 C -11 -7 -10 -25 0 -30 C 10 -25 11 -7 0 0 Z" transform="translate(32 31) rotate(124) scale(0.88 0.88)" fill="#F5F1E8" stroke="#1F9AA6" stroke-width="1.4" stroke-linejoin="round"></path><path d="M32 28.5 C 27.4 28.5 26.7 32.4 28.6 35 C 29.8 36.7 31 38.1 32 39.3 C 33 38.1 34.2 36.7 35.4 35 C 37.3 32.4 36.6 28.5 32 28.5 Z" fill="#F5F1E8" stroke="#1F9AA6" stroke-width="1.4" stroke-linejoin="round"></path><circle cx="32" cy="31.2" r="3.1" fill="#C99A3A"></circle><circle cx="29.2" cy="27.6" r="1.05" fill="#C99A3A"></circle><circle cx="34.8" cy="27.6" r="1.05" fill="#C99A3A"></circle></g><g transform="translate(34 50) rotate(-6) scale(0.56) translate(-32 -31)"><path d="M0 0 C -11 -7 -10 -25 0 -30 C 10 -25 11 -7 0 0 Z" transform="translate(32 31) rotate(0) scale(0.82 0.72)" fill="#F5F1E8" stroke="#1F9AA6" stroke-width="1.4" stroke-linejoin="round"></path><path d="M0 0 C -11 -7 -10 -25 0 -30 C 10 -25 11 -7 0 0 Z" transform="translate(32 31) rotate(-58) scale(1.04 1)" fill="#F5F1E8" stroke="#1F9AA6" stroke-width="1.4" stroke-linejoin="round"></path><path d="M0 0 C -11 -7 -10 -25 0 -30 C 10 -25 11 -7 0 0 Z" transform="translate(32 31) rotate(55) scale(1.12 1.03)" fill="#F5F1E8" stroke="#1F9AA6" stroke-width="1.4" stroke-linejoin="round"></path><path d="M0 0 C -11 -7 -10 -25 0 -30 C 10 -25 11 -7 0 0 Z" transform="translate(32 31) rotate(-126) scale(0.84 0.86)" fill="#F5F1E8" stroke="#1F9AA6" stroke-width="1.4" stroke-linejoin="round"></path><path d="M0 0 C -11 -7 -10 -25 0 -30 C 10 -25 11 -7 0 0 Z" transform="translate(32 31) rotate(124) scale(0.88 0.88)" fill="#F5F1E8" stroke="#1F9AA6" stroke-width="1.4" stroke-linejoin="round"></path><path d="M32 28.5 C 27.4 28.5 26.7 32.4 28.6 35 C 29.8 36.7 31 38.1 32 39.3 C 33 38.1 34.2 36.7 35.4 35 C 37.3 32.4 36.6 28.5 32 28.5 Z" fill="#F5F1E8" stroke="#1F9AA6" stroke-width="1.4" stroke-linejoin="round"></path><circle cx="32" cy="31.2" r="3.1" fill="#C99A3A"></circle><circle cx="29.2" cy="27.6" r="1.05" fill="#C99A3A"></circle><circle cx="34.8" cy="27.6" r="1.05" fill="#C99A3A"></circle></g><path d="M31 13 C 28.6 11.6 28.2 8 30 6 C 31.8 8 32.1 11 31 13 Z" fill="#F5F1E8"></path><path d="M40 16 C 42.4 14.6 44 11.6 44.2 8.8 C 41.6 9.4 39.8 12 40 16 Z" fill="#F5F1E8"></path><rect x="30" y="60" width="6" height="5" rx="1" fill="#C99A3A"></rect></g></svg>