<svg xmlns="http://www.w3.org/2000/svg" viewBox="0 0 64 82" fill="none"><path d="M41 76 C 39 68 37 62 37 57 C 37 50 29 47 29 40 C 29 33 36 32 35 26 C 34 19 32 14 32 6" fill="none" stroke="#F5F1E8" stroke-width="2" stroke-linecap="round"></path><g transform="translate(37 57) rotate(16) scale(0.92) translate(-32 -31)"><path d="M0 0 C -11 -7 -10 -25 0 -30 C 10 -25 11 -7 0 0 Z" transform="translate(32 31) rotate(0) scale(0.82 0.72)" fill="#F5F1E8" stroke="#1F9AA6" stroke-width="1.4" stroke-linejoin="round"></path><path d="M0 0 C -11 -7 -10 -25 0 -30 C 10 -25 11 -7 0 0 Z" transform="translate(32 31) rotate(-58) scale(1.04 1)" fill="#F5F1E8" stroke="#1F9AA6" stroke-width="1.4" stroke-linejoin="round"></path><path d="M0 0 C -11 -7 -10 -25 0 -30 C 10 -25 11 -7 0 0 Z" transform="translate(32 31) rotate(55) scale(1.12 1.03)" fill="#F5F1E8" stroke="#1F9AA6" stroke-width="1.4" stroke-linejoin="round"></path><path d="M0 0 C -11 -7 -10 -25 0 -30 C 10 -25 11 -7 0 0 Z" transform="translate(32 31) rotate(-126) scale(0.84 0.86)" fill="#F5F1E8" stroke="#1F9AA6" stroke-width="1.4" stroke-linejoin="round"></path><path d="M0 0 C -11 -7 -10 -25 0 -30 C 10 -25 11 -7 0 0 Z" transform="translate(32 31) rotate(124) scale(0.88 0.88)" fill="#F5F1E8" stroke="#1F9AA6" stroke-width="1.4" stroke-linejoin="round"></path><path d="M32 28.5 C 27.4 28.5 26.7 32.4 28.6 35 C 29.8 36.7 31 38.1 32 39.3 C 33 38.1 34.2 36.7 35.4 35 C 37.3 32.4 36.6 28.5 32 28.5 Z" fill="#F5F1E8" stroke="#1F9AA6" stroke-width="1.4" stroke-linejoin="round"></path><circle cx="32" cy="31.2" r="3.1" fill="#C99A3A"></circle><circle cx="29.2" cy="27.6" r="1.05" fill="#C99A3A"></circle><circle cx="34.8" cy="27.6" r="1.05" fill="#C99A3A"></circle></g><g transform="translate(29 40) rotate(-12) scale(0.7) translate(-32 -31)"><path d="M0 0 C -11 -7 -10 -25 0 -30 C 10 -25 11 -7 0 0 Z" transform="translate(32 31) rotate(0) scale(0.82 0.72)" fill="#F5F1E8" stroke="#1F9AA6" stroke-width="1.4" stroke-linejoin="round"></path><path d="M0 0 C -11 -7 -10 -25 0 -30 C 10 -25 11 -7 0 0 Z" transform="translate(32 31) rotate(-58) scale(1.04 1)" fill="#F5F1E8" stroke="#1F9AA6" stroke-width="1.4" stroke-linejoin="round"></path><path d="M0 0 C -11 -7 -10 -25 0 -30 C 10 -25 11 -7 0 0 Z" transform="translate(32 31) rotate(55) scale(1.12 1.03)" fill="#F5F1E8" stroke="#1F9AA6" stroke-width="1.4" stroke-linejoin="round"></path><path d="M0 0 C -11 -7 -10 -25 0 -30 C 10 -25 11 -7 0 0 Z" transform="translate(32 31) rotate(-126) scale(0.84 0.86)" fill="#F5F1E8" stroke="#1F9AA6" stroke-width="1.4" stroke-linejoin="round"></path><path d="M0 0 C -11 -7 -10 -25 0 -30 C 10 -25 11 -7 0 0 Z" transform="translate(32 31) rotate(124) scale(0.88 0.88)" fill="#F5F1E8" stroke="#1F9AA6" stroke-width="1.4" stroke-linejoin="round"></path><path d="M32 28.5 C 27.4 28.5 26.7 32.4 28.6 35 C 29.8 36.7 31 38.1 32 39.3 C 33 38.1 34.2 36.7 35.4 35 C 37.3 32.4 36.6 28.5 32 28.5 Z" fill="#F5F1E8" stroke="#1F9AA6" stroke-width="1.4" stroke-linejoin="round"></path><circle cx="32" cy="31.2" r="3.1" fill="#C99A3A"></circle><circle cx="29.2" cy="27.6" r="1.05" fill="#C99A3A"></circle><circle cx="34.8" cy="27.6" r="1.05" fill="#C99A3A"></circle></g><g transform="translate(35 26) rotate(12) scale(0.52) translate(-32 -31)"><path d="M0 0 C -11 -7 -10 -25 0 -30 C 10 -25 11 -7 0 0 Z" transform="translate(32 31) rotate(0) scale(0.82 0.72)" fill="#F5F1E8" stroke="#1F9AA6" stroke-width="1.4" stroke-linejoin="round"></path><path d="M0 0 C -11 -7 -10 -25 0 -30 C 10 -25 11 -7 0 0 Z" transform="translate(32 31) rotate(-58) scale(1.04 1)" fill="#F5F1E8" stroke="#1F9AA6" stroke-width="1.4" stroke-linejoin="round"></path><path d="M0 0 C -11 -7 -10 -25 0 -30 C 10 -25 11 -7 0 0 Z" transform="translate(32 31) rotate(55) scale(1.12 1.03)" fill="#F5F1E8" stroke="#1F9AA6" stroke-width="1.4" stroke-linejoin="round"></path><path d="M0 0 C -11 -7 -10 -25 0 -30 C 10 -25 11 -7 0 0 Z" transform="translate(32 31) rotate(-126) scale(0.84 0.86)" fill="#F5F1E8" stroke="#1F9AA6" stroke-width="1.4" stroke-linejoin="round"></path><path d="M0 0 C -11 -7 -10 -25 0 -30 C 10 -25 11 -7 0 0 Z" transform="translate(32 31) rotate(124) scale(0.88 0.88)" fill="#F5F1E8" stroke="#1F9AA6" stroke-width="1.4" stroke-linejoin="round"></path><path d="M32 28.5 C 27.4 28.5 26.7 32.4 28.6 35 C 29.8 36.7 31 38.1 32 39.3 C 33 38.1 34.2 36.7 35.4 35 C 37.3 32.4 36.6 28.5 32 28.5 Z" fill="#F5F1E8" stroke="#1F9AA6" stroke-width="1.4" stroke-linejoin="round"></path><circle cx="32" cy="31.2" r="3.1" fill="#C99A3A"></circle><circle cx="29.2" cy="27.6" r="1.05" fill="#C99A3A"></circle><circle cx="34.8" cy="27.6" r="1.05" fill="#C99A3A"></circle></g><path d="M32 13 C 29.4 11.4 29 7.6 30.9 5.5 C 32.7 7.6 33.1 10.8 32 13 Z" fill="#F5F1E8"></path><path d="M33 15 C 35.7 13.9 37.8 11.2 38.3 8.3 C 35.4 8.8 33.5 11.4 33 15 Z" fill="#F5F1E8"></path></svg>