<svg xmlns="http://www.w3.org/2000/svg" viewBox="0 0 64 64" fill="none"><path d="M0 0 C -11 -7 -10 -25 0 -30 C 10 -25 11 -7 0 0 Z" transform="translate(32 31) rotate(0) scale(0.82 0.72)" fill="#1B1A17" stroke="#F5F1E8" stroke-width="1.4" stroke-linejoin="round"></path><path d="M0 0 C -11 -7 -10 -25 0 -30 C 10 -25 11 -7 0 0 Z" transform="translate(32 31) rotate(-58) scale(1.04 1)" fill="#1B1A17" stroke="#F5F1E8" stroke-width="1.4" stroke-linejoin="round"></path><path d="M0 0 C -11 -7 -10 -25 0 -30 C 10 -25 11 -7 0 0 Z" transform="translate(32 31) rotate(55) scale(1.12 1.03)" fill="#1B1A17" stroke="#F5F1E8" stroke-width="1.4" stroke-linejoin="round"></path><path d="M0 0 C -11 -7 -10 -25 0 -30 C 10 -25 11 -7 0 0 Z" transform="translate(32 31) rotate(-126) scale(0.84 0.86)" fill="#1B1A17" stroke="#F5F1E8" stroke-width="1.4" stroke-linejoin="round"></path><path d="M0 0 C -11 -7 -10 -25 0 -30 C 10 -25 11 -7 0 0 Z" transform="translate(32 31) rotate(124) scale(0.88 0.88)" fill="#1B1A17" stroke="#F5F1E8" stroke-width="1.4" stroke-linejoin="round"></path><path d="M32 28.5 C 27.4 28.5 26.7 32.4 28.6 35 C 29.8 36.7 31 38.1 32 39.3 C 33 38.1 34.2 36.7 35.4 35 C 37.3 32.4 36.6 28.5 32 28.5 Z" fill="#1B1A17" stroke="#F5F1E8" stroke-width="1.4" stroke-linejoin="round"></path><circle cx="32" cy="31.2" r="3.1" fill="#C99A3A"></circle><circle cx="29.2" cy="27.6" r="1.05" fill="#C99A3A"></circle><circle cx="34.8" cy="27.6" r="1.05" fill="#C99A3A"></circle></svg>